<?xml version="1.0" standalone="no"?>
<!DOCTYPE svg PUBLIC "-//W3C//DTD SVG 20010904//EN"
 "http://www.w3.org/TR/2001/REC-SVG-20010904/DTD/svg10.dtd">
<svg version="1.0" xmlns="http://www.w3.org/2000/svg"
 width="16.000000pt" height="16.000000pt" viewBox="0 0 16.000000 16.000000"
 preserveAspectRatio="xMidYMid meet">
<metadata>
Created by potrace 1.11, written by Peter Selinger 2001-2013
</metadata>
<g transform="translate(0.000000,16.000000) scale(0.016162,-0.016162)"
fill="#000000" stroke="none">
<path d="M776 873 c-35 -25 -113 -116 -190 -223 -47 -64 -60 -52 -31 29 14 38
25 82 25 99 0 28 -3 30 -45 36 -25 4 -53 3 -63 -3 -11 -6 -49 -51 -86 -100
-37 -49 -74 -92 -83 -95 -14 -6 -15 0 -9 41 3 27 9 60 12 74 4 19 1 28 -12 33
-10 4 -21 1 -26 -6 -11 -17 -33 -94 -58 -203 -11 -49 -32 -124 -45 -165 -14
-41 -34 -106 -45 -145 -12 -38 -23 -75 -26 -82 -4 -10 47 -43 67 -43 4 0 15
24 23 53 20 68 219 407 232 395 5 -5 -46 -208 -62 -243 -7 -16 -22 -44 -34
-62 l-21 -32 35 -10 c42 -11 104 2 113 25 3 7 9 12 13 9 11 -7 43 36 113 147
50 80 83 125 144 197 l22 26 1 -28 c0 -16 -5 -38 -11 -50 -10 -22 -10 -22 7
-2 16 20 16 20 10 -5 -4 -14 -12 -51 -18 -82 -6 -31 -14 -55 -18 -53 -7 5 -54
-215 -47 -221 2 -2 17 -6 33 -10 42 -8 70 26 78 96 9 88 17 144 23 160 9 22
10 26 33 140 11 58 28 132 36 165 28 112 29 109 -6 138 -17 15 -35 27 -38 27
-4 0 -25 -12 -46 -27z m-116 -167 c0 -2 -8 -10 -17 -17 -16 -13 -17 -12 -4 4
13 16 21 21 21 13z m-90 -120 c0 -2 -8 -10 -17 -17 -16 -13 -17 -12 -4 4 13
16 21 21 21 13z"/>
</g>
</svg>
